# xmcd
#
# Track frame offsets:
#	150
#	12511
#	28317
#	41048
#	52143
#	64719
#	76039
#	89772
#	100755
#	112862
#	126590
#
# Disc length: 1823 seconds
#
# Revision: 1
# Processed by: cddbd v1.5.2PL0 Copyright (c) Steve Scherf et al.
# Submitted via: EasyCDDAExtractor 6.5.0.1
#
DISCID=95071d0b
DTITLE=Don Williams - Don and Dolly Greatest Hits CD1
DYEAR=2007
DGENRE=Country
TTITLE0=She Walked By On Her Way To Be A Woman
TTITLE1=Tears
TTITLE2=Coming Apart
TTITLE3=Spend Some Time
TTITLE4=There's Never Been A Time
TTITLE5=Storybook Children
TTITLE6=Ruby Tuesday
TTITLE7=(There's) Always Something There To Remind Me
TTITLE8=Follow Me To Louisville
TTITLE9=Where Do I Go From Here
TTITLE10=Take My Hand For A While
EXTD=
EXTT0=
EXTT1=
EXTT2=
EXTT3=
EXTT4=
EXTT5=
EXTT6=
EXTT7=
EXTT8=
EXTT9=
EXTT10=
PLAYORDER=
